<svg width="162" height="162" viewBox="0 0 162 162" fill="none" xmlns="http://www.w3.org/2000/svg">
<path d="M124.909 33.0761C125.597 33.7644 125.983 34.6973 125.983 35.67C125.983 36.6427 125.597 37.5756 124.909 38.2639L109.15 54.0229L124.909 69.7819C125.27 70.1179 125.559 70.5232 125.76 70.9734C125.961 71.4237 126.068 71.9097 126.077 72.4026C126.086 72.8954 125.995 73.385 125.811 73.842C125.626 74.2991 125.351 74.7143 125.003 75.0628C124.654 75.4114 124.239 75.6861 123.782 75.8707C123.325 76.0554 122.835 76.146 122.342 76.1373C121.85 76.1286 121.364 76.0208 120.913 75.8201C120.463 75.6195 120.058 75.3303 119.722 74.9696L103.963 59.2106L88.2037 74.9696C87.8677 75.3303 87.4625 75.6195 87.0122 75.8201C86.562 76.0208 86.0759 76.1286 85.5831 76.1373C85.0902 76.146 84.6007 76.0554 84.1436 75.8707C83.6866 75.6861 83.2714 75.4114 82.9228 75.0628C82.5743 74.7143 82.2995 74.2991 82.1149 73.842C81.9303 73.385 81.8396 72.8954 81.8483 72.4026C81.857 71.9097 81.9649 71.4237 82.1655 70.9734C82.3661 70.5232 82.6554 70.1179 83.016 69.7819L98.775 54.0229L83.016 38.2639C82.3676 37.5681 82.0146 36.6477 82.0314 35.6968C82.0482 34.7459 82.4334 33.8386 83.1059 33.1661C83.7785 32.4936 84.6857 32.1083 85.6367 32.0916C86.5876 32.0748 87.5079 32.4278 88.2037 33.0761L103.963 48.8351L119.722 33.0761C120.41 32.3888 121.343 32.0027 122.316 32.0027C123.288 32.0027 124.221 32.3888 124.909 33.0761V33.0761ZM64.159 38.4205L68.368 48.3457C70.1983 52.6672 69.1853 57.7522 65.8524 60.9138L56.583 69.7134C57.1507 74.9794 58.9223 80.1623 61.8882 85.2619C64.7061 90.1962 68.4855 94.5149 73.0027 97.9621L84.1367 94.2426C88.3604 92.838 92.9559 94.4579 95.54 98.2606L101.574 107.119C104.584 111.543 104.046 117.641 100.312 121.39L96.3084 125.408C92.3246 129.407 86.6327 130.86 81.3716 129.216C68.9455 125.34 57.5226 113.834 47.0982 94.6977C36.6591 75.5325 32.9738 59.2645 36.0473 45.9134C37.3394 40.2949 41.3378 35.8168 46.5647 34.1479L51.8308 32.4644C56.7738 30.8885 62.0448 33.4383 64.1639 38.4205L64.159 38.4205Z" fill="#F50057"/>
<rect x="3" y="3" width="156" height="156" rx="78" stroke="#F50057" stroke-width="6"/>
</svg>
