
<svg id="visual" viewBox="0 0 960 240" width="960" height="240" xmlns="http://www.w3.org/2000/svg" xmlns:xlink="http://www.w3.org/1999/xlink" version="1.1"><path d="M0 128L22.8 141.5C45.7 155 91.3 182 137 163.2C182.7 144.3 228.3 79.7 274 58.3C319.7 37 365.3 59 411.2 88.3C457 117.7 503 154.3 548.8 172.5C594.7 190.7 640.3 190.3 686 168.7C731.7 147 777.3 104 823 88.7C868.7 73.3 914.3 85.7 937.2 91.8L960 98L960 0L937.2 0C914.3 0 868.7 0 823 0C777.3 0 731.7 0 686 0C640.3 0 594.7 0 548.8 0C503 0 457 0 411.2 0C365.3 0 319.7 0 274 0C228.3 0 182.7 0 137 0C91.3 0 45.7 0 22.8 0L0 0Z" fill="#f50057" stroke-linecap="round" stroke-linejoin="miter"></path></svg>