
<svg id="visual" viewBox="0 0 860 250" width="860" height="250" xmlns="http://www.w3.org/2000/svg" xmlns:xlink="http://www.w3.org/1999/xlink" version="1.1"><path d="M0 209L23.8 186.7C47.7 164.3 95.3 119.7 143.2 97.5C191 75.3 239 75.7 286.8 91.2C334.7 106.7 382.3 137.3 430 159C477.7 180.7 525.3 193.3 573.2 174.5C621 155.7 669 105.3 716.8 93.5C764.7 81.7 812.3 108.3 836.2 121.7L860 135L860 0L836.2 0C812.3 0 764.7 0 716.8 0C669 0 621 0 573.2 0C525.3 0 477.7 0 430 0C382.3 0 334.7 0 286.8 0C239 0 191 0 143.2 0C95.3 0 47.7 0 23.8 0L0 0Z" fill="#4e69ff" stroke-linecap="round" stroke-linejoin="miter"></path></svg>