<svg width="127" height="100" viewBox="0 0 127 100" fill="none" xmlns="http://www.w3.org/2000/svg">
<circle cx="86.2354" cy="37.8825" r="28.4118" fill="#FFD97B" stroke="#B79236" stroke-width="2"/>
<path d="M98.6062 37.1104H101.891C101.891 28.6841 95.5297 22.3291 87.0919 22.3291V25.6142C93.7639 25.6142 98.6062 30.4482 98.6062 37.1104Z" fill="#B79236"/>
<path d="M87.1084 32.1847C90.5627 32.1847 92.036 33.6581 92.036 37.1123H95.3211C95.3211 31.8151 92.4056 28.8996 87.1084 28.8996V32.1847ZM92.7292 41.1251C92.4136 40.8382 91.9988 40.6852 91.5725 40.6984C91.1462 40.7116 90.7417 40.8899 90.4444 41.1957L86.5138 45.238C85.5677 45.0573 83.6656 44.4644 81.7077 42.5114C79.7498 40.5518 79.1568 38.6448 78.9811 37.7053L83.0201 33.773C83.3263 33.476 83.5049 33.0714 83.5181 32.645C83.5312 32.2185 83.378 31.8037 83.0907 31.4883L77.0215 24.8146C76.7342 24.4982 76.3348 24.3063 75.9081 24.2796C75.4815 24.2529 75.0613 24.3936 74.7368 24.6717L71.1724 27.7285C70.8885 28.0135 70.719 28.3928 70.6961 28.7945C70.6715 29.2051 70.2017 38.9323 77.7443 46.4781C84.3243 53.0565 92.5666 53.5378 94.8366 53.5378C95.1684 53.5378 95.372 53.5279 95.4262 53.5246C95.8279 53.5021 96.207 53.3319 96.4906 53.0466L99.5457 49.4807C99.8241 49.1563 99.965 48.7362 99.9387 48.3096C99.9123 47.883 99.7207 47.4835 99.4045 47.1959L92.7292 41.1251V41.1251Z" fill="#B79236"/>
<circle cx="97.3531" cy="66.8823" r="28.4118" fill="#FFD97B" stroke="#B79236" stroke-width="2"/>
<path d="M109.724 66.1101H113.009C113.009 57.6839 106.647 51.3289 98.2097 51.3289V54.6139C104.882 54.6139 109.724 59.4479 109.724 66.1101Z" fill="#B79236"/>
<path d="M98.2261 61.1845C101.68 61.1845 103.154 62.6578 103.154 66.1121H106.439C106.439 60.8149 103.523 57.8994 98.2261 57.8994V61.1845ZM103.847 70.1248C103.531 69.838 103.116 69.685 102.69 69.6981C102.264 69.7113 101.859 69.8896 101.562 70.1955L97.6315 74.2378C96.6854 74.0571 94.7833 73.4641 92.8254 71.5111C90.8675 69.5516 90.2745 67.6446 90.0988 66.7051L94.1378 62.7728C94.444 62.4757 94.6226 62.0711 94.6357 61.6447C94.6489 61.2183 94.4957 60.8035 94.2084 60.488L88.1392 53.8144C87.8518 53.4979 87.4524 53.306 87.0258 53.2793C86.5992 53.2526 86.179 53.3933 85.8544 53.6715L82.2901 56.7282C82.0061 57.0132 81.8366 57.3926 81.8138 57.7943C81.7891 58.2049 81.3194 67.932 88.8619 75.4779C95.442 82.0563 103.684 82.5375 105.954 82.5375C106.286 82.5375 106.49 82.5277 106.544 82.5244C106.946 82.5019 107.325 82.3316 107.608 82.0464L110.663 78.4804C110.942 78.1561 111.083 77.736 111.056 77.3094C111.03 76.8828 110.838 76.4833 110.522 76.1957L103.847 70.1248V70.1248Z" fill="#B79236"/>
<circle cx="29.4118" cy="68.1176" r="28.4118" fill="#FFD97B" stroke="#B79236" stroke-width="2"/>
<path d="M41.7825 67.3455H45.0676C45.0676 58.9192 38.7061 52.5642 30.2683 52.5642V55.8493C36.9403 55.8493 41.7825 60.6833 41.7825 67.3455Z" fill="#B79236"/>
<path d="M30.2848 62.4201C33.7391 62.4201 35.2124 63.8934 35.2124 67.3477H38.4975C38.4975 62.0505 35.582 59.135 30.2848 59.135V62.4201ZM35.9056 71.3604C35.59 71.0736 35.1752 70.9206 34.7489 70.9337C34.3226 70.9469 33.9181 71.1252 33.6208 71.4311L29.6902 75.4733C28.7441 75.2927 26.842 74.6997 24.8841 72.7467C22.9262 70.7872 22.3332 68.8802 22.1575 67.9406L26.1965 64.0084C26.5027 63.7113 26.6813 63.3067 26.6945 62.8803C26.7076 62.4539 26.5544 62.0391 26.2671 61.7236L20.1979 55.05C19.9106 54.7335 19.5111 54.5416 19.0845 54.5149C18.6579 54.4882 18.2377 54.6289 17.9131 54.9071L14.3488 57.9638C14.0649 58.2488 13.8954 58.6282 13.8725 59.0298C13.8479 59.4405 13.3781 69.1676 20.9206 76.7135C27.5007 83.2919 35.743 83.7731 38.013 83.7731C38.3448 83.7731 38.5484 83.7633 38.6026 83.76C39.0043 83.7375 39.3834 83.5672 39.667 83.282L42.7221 79.716C43.0005 79.3917 43.1414 78.9716 43.1151 78.545C43.0887 78.1184 42.8971 77.7189 42.5809 77.4313L35.9056 71.3604V71.3604Z" fill="#B79236"/>
<circle cx="54.5295" cy="70.5883" r="28.4118" fill="#FFD97B" stroke="#B79236" stroke-width="2"/>
<path d="M66.9003 69.8162H70.1854C70.1854 61.3899 63.8239 55.0349 55.3861 55.0349V58.32C62.0581 58.32 66.9003 63.154 66.9003 69.8162Z" fill="#B79236"/>
<path d="M55.4026 64.8908C58.8569 64.8908 60.3302 66.3641 60.3302 69.8184H63.6153C63.6153 64.5212 60.6998 61.6057 55.4026 61.6057V64.8908ZM61.0234 73.8311C60.7078 73.5443 60.293 73.3913 59.8667 73.4044C59.4404 73.4176 59.0359 73.5959 58.7386 73.9018L54.808 77.9441C53.8619 77.7634 51.9598 77.1704 50.0019 75.2174C48.044 73.2579 47.451 71.3509 47.2753 70.4114L51.3143 66.4791C51.6205 66.182 51.7991 65.7774 51.8123 65.351C51.8254 64.9246 51.6722 64.5098 51.3849 64.1943L45.3157 57.5207C45.0283 57.2042 44.6289 57.0123 44.2023 56.9856C43.7757 56.9589 43.3555 57.0996 43.0309 57.3778L39.4666 60.4345C39.1826 60.7195 39.0132 61.0989 38.9903 61.5006C38.9656 61.9112 38.4959 71.6383 46.0384 79.1842C52.6185 85.7626 60.8608 86.2438 63.1308 86.2438C63.4625 86.2438 63.6662 86.234 63.7204 86.2307C64.1221 86.2082 64.5012 86.0379 64.7848 85.7527L67.8399 82.1867C68.1183 81.8624 68.2592 81.4423 68.2329 81.0157C68.2065 80.5891 68.0149 80.1896 67.6987 79.902L61.0234 73.8311V73.8311Z" fill="#B79236"/>
<circle cx="48.6471" cy="29.4118" r="28.4118" fill="#FFD97B" stroke="#B79236" stroke-width="2"/>
<path d="M61.018 28.6396H64.3031C64.3031 20.2134 57.9415 13.8584 49.5038 13.8584V17.1435C56.1758 17.1435 61.018 21.9775 61.018 28.6396Z" fill="#B79236"/>
<path d="M49.5201 23.7142C52.9744 23.7142 54.4478 25.1876 54.4478 28.6419H57.7329C57.7329 23.3447 54.8173 20.4292 49.5201 20.4292V23.7142ZM55.1409 32.6546C54.8253 32.3677 54.4106 32.2148 53.9843 32.2279C53.5579 32.2411 53.1534 32.4194 52.8561 32.7252L48.9255 36.7675C47.9794 36.5869 46.0774 35.9939 44.1195 34.0409C42.1615 32.0814 41.5686 30.1744 41.3928 29.2348L45.4318 25.3026C45.738 25.0055 45.9166 24.6009 45.9298 24.1745C45.943 23.7481 45.7897 23.3332 45.5025 23.0178L39.4333 16.3442C39.1459 16.0277 38.7465 15.8358 38.3199 15.8091C37.8933 15.7824 37.4731 15.9231 37.1485 16.2013L33.5842 19.258C33.3002 19.543 33.1307 19.9224 33.1078 20.324C33.0832 20.7347 32.6134 30.4618 40.156 38.0077C46.736 44.586 54.9783 45.0673 57.2483 45.0673C57.5801 45.0673 57.7838 45.0575 57.838 45.0542C58.2396 45.0317 58.6187 44.8614 58.9023 44.5762L61.9575 41.0102C62.2358 40.6859 62.3768 40.2658 62.3504 39.8392C62.324 39.4126 62.1324 39.013 61.8162 38.7255L55.1409 32.6546V32.6546Z" fill="#B79236"/>
</svg>
