<svg width="133" height="100" viewBox="0 0 133 100" fill="none" xmlns="http://www.w3.org/2000/svg">
<circle cx="36.8527" cy="73.4539" r="12.0691" fill="#FFD97B" stroke="#B79236"/>
<path d="M42.1394 73.1241H43.5432C43.5432 69.5232 40.8246 66.8074 37.2188 66.8074V68.2113C40.07 68.2113 42.1394 70.2771 42.1394 73.1241Z" fill="#B79236"/>
<path d="M37.2258 71.019C38.702 71.019 39.3316 71.6487 39.3316 73.1249H40.7355C40.7355 70.8611 39.4896 69.6152 37.2258 69.6152V71.019ZM39.6278 74.8397C39.493 74.7171 39.3157 74.6517 39.1335 74.6574C38.9513 74.663 38.7785 74.7392 38.6514 74.8699L36.9717 76.5974C36.5674 76.5201 35.7545 76.2667 34.9178 75.4321C34.0811 74.5947 33.8277 73.7798 33.7526 73.3783L35.4787 71.6978C35.6095 71.5709 35.6858 71.398 35.6915 71.2157C35.6971 71.0335 35.6316 70.8562 35.5088 70.7214L32.9152 67.8694C32.7924 67.7342 32.6217 67.6522 32.4394 67.6408C32.257 67.6294 32.0775 67.6895 31.9388 67.8084L30.4156 69.1147C30.2942 69.2365 30.2218 69.3986 30.212 69.5702C30.2015 69.7457 30.0007 73.9026 33.224 77.1273C36.036 79.9386 39.5583 80.1443 40.5284 80.1443C40.6702 80.1443 40.7573 80.1401 40.7804 80.1387C40.9521 80.129 41.1141 80.0563 41.2353 79.9344L42.5409 78.4105C42.6598 78.2719 42.7201 78.0923 42.7088 77.91C42.6975 77.7277 42.6156 77.557 42.4805 77.4341L39.6278 74.8397V74.8397Z" fill="#B79236"/>
<circle cx="44.9724" cy="41.4029" r="12.0691" fill="#FFD97B" stroke="#B79236"/>
<path d="M50.259 41.0729H51.6629C51.6629 37.4719 48.9443 34.7561 45.3384 34.7561V36.16C48.1897 36.16 50.259 38.2258 50.259 41.0729Z" fill="#B79236"/>
<path d="M45.3454 38.9678C46.8216 38.9678 47.4512 39.5974 47.4512 41.0736H48.8551C48.8551 38.8098 47.6092 37.5639 45.3454 37.5639V38.9678ZM47.7475 42.7884C47.6126 42.6658 47.4353 42.6005 47.2532 42.6061C47.071 42.6117 46.8981 42.6879 46.7711 42.8186L45.0913 44.5461C44.687 44.4689 43.8741 44.2155 43.0374 43.3809C42.2007 42.5435 41.9473 41.7285 41.8722 41.327L43.5983 39.6465C43.7291 39.5196 43.8055 39.3467 43.8111 39.1645C43.8167 38.9822 43.7512 38.8049 43.6285 38.6701L41.0348 35.8182C40.912 35.6829 40.7413 35.6009 40.559 35.5895C40.3767 35.5781 40.1971 35.6382 40.0584 35.7571L38.5352 37.0634C38.4138 37.1852 38.3414 37.3473 38.3316 37.519C38.3211 37.6944 38.1203 41.8513 41.3436 45.0761C44.1556 47.8873 47.678 48.093 48.6481 48.093C48.7898 48.093 48.8769 48.0888 48.9 48.0874C49.0717 48.0778 49.2337 48.005 49.3549 47.8831L50.6605 46.3592C50.7795 46.2206 50.8397 46.0411 50.8284 45.8588C50.8172 45.6764 50.7353 45.5057 50.6002 45.3828L47.7475 42.7884V42.7884Z" fill="#B79236"/>
<circle cx="75.3143" cy="73.4539" r="12.0691" fill="#FFD97B" stroke="#B79236"/>
<path d="M80.6009 73.1241H82.0048C82.0048 69.5232 79.2862 66.8074 75.6803 66.8074V68.2113C78.5316 68.2113 80.6009 70.2771 80.6009 73.1241Z" fill="#B79236"/>
<path d="M75.6873 71.019C77.1635 71.019 77.7932 71.6487 77.7932 73.1249H79.197C79.197 70.8611 77.9511 69.6152 75.6873 69.6152V71.019ZM78.0894 74.8397C77.9545 74.7171 77.7773 74.6517 77.5951 74.6574C77.4129 74.663 77.24 74.7392 77.113 74.8699L75.4332 76.5974C75.0289 76.5201 74.2161 76.2667 73.3794 75.4321C72.5426 74.5947 72.2892 73.7798 72.2141 73.3783L73.9402 71.6978C74.0711 71.5709 74.1474 71.398 74.153 71.2157C74.1586 71.0335 74.0931 70.8562 73.9704 70.7214L71.3767 67.8694C71.2539 67.7342 71.0832 67.6522 70.9009 67.6408C70.7186 67.6294 70.539 67.6895 70.4003 67.8084L68.8771 69.1147C68.7557 69.2365 68.6833 69.3986 68.6735 69.5702C68.663 69.7457 68.4623 73.9026 71.6856 77.1273C74.4975 79.9386 78.0199 80.1443 78.99 80.1443C79.1318 80.1443 79.2188 80.1401 79.242 80.1387C79.4136 80.129 79.5756 80.0563 79.6968 79.9344L81.0024 78.4105C81.1214 78.2719 81.1816 78.0923 81.1704 77.91C81.1591 77.7277 81.0772 77.557 80.9421 77.4341L78.0894 74.8397V74.8397Z" fill="#B79236"/>
<circle cx="91.1262" cy="37.1292" r="12.0691" fill="#FFD97B" stroke="#B79236"/>
<path d="M96.4129 36.7992H97.8167C97.8167 33.1982 95.0981 30.4824 91.4922 30.4824V31.8863C94.3435 31.8863 96.4129 33.9521 96.4129 36.7992Z" fill="#B79236"/>
<path d="M91.4993 34.6943C92.9755 34.6943 93.6051 35.324 93.6051 36.8002H95.009C95.009 34.5364 93.763 33.2904 91.4993 33.2904V34.6943ZM93.9013 38.515C93.7665 38.3924 93.5892 38.327 93.407 38.3327C93.2248 38.3383 93.052 38.4145 92.9249 38.5452L91.2452 40.2727C90.8409 40.1954 90.028 39.942 89.1913 39.1074C88.3546 38.27 88.1012 37.4551 88.0261 37.0536L89.7522 35.3731C89.883 35.2461 89.9593 35.0733 89.965 34.891C89.9706 34.7088 89.9051 34.5315 89.7823 34.3967L87.1887 31.5447C87.0659 31.4095 86.8952 31.3275 86.7129 31.3161C86.5305 31.3047 86.351 31.3648 86.2123 31.4836L84.6891 32.79C84.5677 32.9118 84.4953 33.0739 84.4855 33.2455C84.475 33.421 84.2742 37.5779 87.4975 40.8026C90.3095 43.6139 93.8318 43.8196 94.8019 43.8196C94.9437 43.8196 95.0308 43.8154 95.0539 43.8139C95.2256 43.8043 95.3876 43.7316 95.5088 43.6097L96.8144 42.0858C96.9333 41.9472 96.9936 41.7676 96.9823 41.5853C96.971 41.403 96.8891 41.2323 96.754 41.1094L93.9013 38.515V38.515Z" fill="#B79236"/>
<circle cx="115.485" cy="72.5994" r="12.0691" fill="#FFD97B" stroke="#B79236"/>
<path d="M120.772 72.2694H122.176C122.176 68.6684 119.457 65.9526 115.851 65.9526V67.3565C118.702 67.3565 120.772 69.4223 120.772 72.2694Z" fill="#B79236"/>
<path d="M115.858 70.1643C117.334 70.1643 117.964 70.7939 117.964 72.2701H119.368C119.368 70.0064 118.122 68.7604 115.858 68.7604V70.1643ZM118.26 73.985C118.125 73.8624 117.948 73.797 117.766 73.8026C117.584 73.8083 117.411 73.8845 117.284 74.0151L115.604 75.7426C115.2 75.6654 114.387 75.412 113.55 74.5774C112.714 73.74 112.46 72.925 112.385 72.5235L114.111 70.8431C114.242 70.7161 114.318 70.5432 114.324 70.361C114.33 70.1788 114.264 70.0015 114.141 69.8667L111.548 67.0147C111.425 66.8795 111.254 66.7974 111.072 66.786C110.889 66.7746 110.71 66.8348 110.571 66.9536L109.048 68.2599C108.927 68.3817 108.854 68.5438 108.844 68.7155C108.834 68.891 108.633 73.0479 111.856 76.2726C114.668 79.0839 118.191 79.2895 119.161 79.2895C119.303 79.2895 119.39 79.2853 119.413 79.2839C119.585 79.2743 119.747 79.2016 119.868 79.0797L121.173 77.5557C121.292 77.4171 121.353 77.2376 121.341 77.0553C121.33 76.873 121.248 76.7022 121.113 76.5793L118.26 73.985V73.985Z" fill="#B79236"/>
<circle cx="71.8954" cy="16.189" r="12.0691" fill="#FFD97B" stroke="#B79236"/>
<path d="M77.1821 15.8593H78.586C78.586 12.2583 75.8673 9.54248 72.2615 9.54248V10.9464C75.1128 10.9464 77.1821 13.0122 77.1821 15.8593Z" fill="#B79236"/>
<path d="M72.2685 13.7544C73.7447 13.7544 74.3743 14.384 74.3743 15.8602H75.7782C75.7782 13.5965 74.5323 12.3505 72.2685 12.3505V13.7544ZM74.6706 17.5751C74.5357 17.4525 74.3584 17.3871 74.1763 17.3927C73.9941 17.3983 73.8212 17.4745 73.6942 17.6052L72.0144 19.3327C71.6101 19.2555 70.7972 19.0021 69.9605 18.1675C69.1238 17.3301 68.8704 16.5151 68.7953 16.1136L70.5214 14.4332C70.6522 14.3062 70.7285 14.1333 70.7342 13.9511C70.7398 13.7688 70.6743 13.5916 70.5516 13.4568L67.9579 10.6048C67.8351 10.4696 67.6644 10.3875 67.4821 10.3761C67.2998 10.3647 67.1202 10.4248 66.9815 10.5437L65.4583 11.85C65.3369 11.9718 65.2645 12.1339 65.2547 12.3056C65.2442 12.4811 65.0434 16.638 68.2667 19.8627C71.0787 22.674 74.6011 22.8796 75.5711 22.8796C75.7129 22.8796 75.8 22.8754 75.8231 22.874C75.9948 22.8644 76.1568 22.7916 76.278 22.6697L77.5836 21.1458C77.7026 21.0072 77.7628 20.8277 77.7515 20.6454C77.7403 20.4631 77.6584 20.2923 77.5232 20.1694L74.6706 17.5751V17.5751Z" fill="#B79236"/>
<circle cx="41.6038" cy="85.847" r="12.0691" fill="#FFD97B" stroke="#B79236"/>
<path d="M46.8906 85.517H48.2945C48.2945 81.916 45.5758 79.2002 41.97 79.2002V80.6041C44.8213 80.6041 46.8906 82.6699 46.8906 85.517Z" fill="#B79236"/>
<path d="M41.9769 83.4121C43.4531 83.4121 44.0828 84.0417 44.0828 85.5179H45.4867C45.4867 83.2542 44.2407 82.0082 41.9769 82.0082V83.4121ZM44.379 87.2328C44.2441 87.1102 44.0669 87.0448 43.8847 87.0504C43.7025 87.0561 43.5296 87.1323 43.4026 87.263L41.7228 88.9904C41.3185 88.9132 40.5057 88.6598 39.669 87.8252C38.8323 86.9878 38.5789 86.1728 38.5037 85.7713L40.2298 84.0909C40.3607 83.9639 40.437 83.791 40.4426 83.6088C40.4483 83.4266 40.3828 83.2493 40.26 83.1145L37.6663 80.2625C37.5435 80.1273 37.3728 80.0452 37.1905 80.0338C37.0082 80.0224 36.8286 80.0826 36.6899 80.2014L35.1667 81.5077C35.0454 81.6295 34.9729 81.7916 34.9631 81.9633C34.9526 82.1388 34.7519 86.2957 37.9752 89.5204C40.7872 92.3317 44.3095 92.5373 45.2796 92.5373C45.4214 92.5373 45.5084 92.5331 45.5316 92.5317C45.7032 92.5221 45.8652 92.4494 45.9864 92.3275L47.292 90.8035C47.411 90.6649 47.4712 90.4854 47.46 90.3031C47.4487 90.1208 47.3668 89.95 47.2317 89.8271L44.379 87.2328V87.2328Z" fill="#B79236"/>
<circle cx="49.7235" cy="53.7957" r="12.0691" fill="#FFD97B" stroke="#B79236"/>
<path d="M55.0102 53.4657H56.4141C56.4141 49.8647 53.6955 47.1489 50.0896 47.1489V48.5528C52.9409 48.5528 55.0102 50.6186 55.0102 53.4657Z" fill="#B79236"/>
<path d="M50.0966 51.3608C51.5728 51.3608 52.2024 51.9905 52.2024 53.4667H53.6063C53.6063 51.2029 52.3603 49.9569 50.0966 49.9569V51.3608ZM52.4986 55.1815C52.3637 55.0589 52.1865 54.9935 52.0043 54.9992C51.8221 55.0048 51.6493 55.081 51.5222 55.2117L49.8425 56.9392C49.4382 56.8619 48.6253 56.6085 47.7886 55.7739C46.9519 54.9365 46.6985 54.1216 46.6234 53.7201L48.3494 52.0396C48.4803 51.9126 48.5566 51.7398 48.5622 51.5575C48.5679 51.3753 48.5024 51.198 48.3796 51.0632L45.786 48.2112C45.6631 48.076 45.4925 47.994 45.3101 47.9826C45.1278 47.9712 44.9483 48.0313 44.8096 48.1502L43.2863 49.4565C43.165 49.5783 43.0925 49.7404 43.0828 49.912C43.0722 50.0875 42.8715 54.2444 46.0948 57.4691C48.9068 60.2804 52.4291 60.4861 53.3992 60.4861C53.541 60.4861 53.628 60.4819 53.6512 60.4805C53.8228 60.4708 53.9849 60.3981 54.1061 60.2762L55.4117 58.7523C55.5306 58.6137 55.5909 58.4341 55.5796 58.2518C55.5683 58.0695 55.4864 57.8988 55.3513 57.7759L52.4986 55.1815V55.1815Z" fill="#B79236"/>
<circle cx="80.0654" cy="85.847" r="12.0691" fill="#FFD97B" stroke="#B79236"/>
<path d="M85.3521 85.517H86.756C86.756 81.916 84.0373 79.2002 80.4315 79.2002V80.6041C83.2827 80.6041 85.3521 82.6699 85.3521 85.517Z" fill="#B79236"/>
<path d="M80.4384 83.4121C81.9146 83.4121 82.5443 84.0417 82.5443 85.5179H83.9481C83.9481 83.2542 82.7022 82.0082 80.4384 82.0082V83.4121ZM82.8405 87.2328C82.7056 87.1102 82.5284 87.0448 82.3462 87.0504C82.164 87.0561 81.9911 87.1323 81.8641 87.263L80.1843 88.9904C79.78 88.9132 78.9672 88.6598 78.1305 87.8252C77.2937 86.9878 77.0403 86.1728 76.9652 85.7713L78.6913 84.0909C78.8222 83.9639 78.8985 83.791 78.9041 83.6088C78.9097 83.4266 78.8442 83.2493 78.7215 83.1145L76.1278 80.2625C76.005 80.1273 75.8343 80.0452 75.652 80.0338C75.4697 80.0224 75.2901 80.0826 75.1514 80.2014L73.6282 81.5077C73.5068 81.6295 73.4344 81.7916 73.4246 81.9633C73.4141 82.1388 73.2134 86.2957 76.4367 89.5204C79.2486 92.3317 82.771 92.5373 83.7411 92.5373C83.8829 92.5373 83.9699 92.5331 83.9931 92.5317C84.1647 92.5221 84.3267 92.4494 84.4479 92.3275L85.7535 90.8035C85.8725 90.6649 85.9327 90.4854 85.9215 90.3031C85.9102 90.1208 85.8283 89.95 85.6932 89.8271L82.8405 87.2328V87.2328Z" fill="#B79236"/>
<circle cx="95.8773" cy="49.5223" r="12.0691" fill="#FFD97B" stroke="#B79236"/>
<path d="M101.164 49.1923H102.568C102.568 45.5913 99.8493 42.8755 96.2434 42.8755V44.2794C99.0947 44.2794 101.164 46.3452 101.164 49.1923Z" fill="#B79236"/>
<path d="M96.2504 47.0874C97.7266 47.0874 98.3562 47.717 98.3562 49.1932H99.7601C99.7601 46.9295 98.5141 45.6835 96.2504 45.6835V47.0874ZM98.6524 50.9081C98.5175 50.7855 98.3403 50.7201 98.1581 50.7257C97.9759 50.7313 97.8031 50.8076 97.676 50.9382L95.9963 52.6657C95.592 52.5885 94.7791 52.3351 93.9424 51.5005C93.1057 50.6631 92.8523 49.8481 92.7772 49.4466L94.5033 47.7662C94.6341 47.6392 94.7104 47.4663 94.7161 47.2841C94.7217 47.1018 94.6562 46.9246 94.5334 46.7898L91.9398 43.9378C91.817 43.8026 91.6463 43.7205 91.464 43.7091C91.2816 43.6977 91.1021 43.7578 90.9634 43.8767L89.4402 45.183C89.3188 45.3048 89.2464 45.4669 89.2366 45.6386C89.2261 45.8141 89.0253 49.971 92.2486 53.1957C95.0606 56.007 98.5829 56.2126 99.553 56.2126C99.6948 56.2126 99.7819 56.2084 99.805 56.207C99.9767 56.1974 100.139 56.1247 100.26 56.0028L101.565 54.4788C101.684 54.3402 101.745 54.1607 101.733 53.9784C101.722 53.7961 101.64 53.6253 101.505 53.5024L98.6524 50.9081V50.9081Z" fill="#B79236"/>
<circle cx="120.236" cy="84.9925" r="12.0691" fill="#FFD97B" stroke="#B79236"/>
<path d="M125.523 84.6625H126.927C126.927 81.0615 124.208 78.3457 120.602 78.3457V79.7496C123.454 79.7496 125.523 81.8154 125.523 84.6625Z" fill="#B79236"/>
<path d="M120.609 82.5574C122.086 82.5574 122.715 83.187 122.715 84.6632H124.119C124.119 82.3994 122.873 81.1535 120.609 81.1535V82.5574ZM123.011 86.378C122.876 86.2554 122.699 86.1901 122.517 86.1957C122.335 86.2013 122.162 86.2775 122.035 86.4082L120.355 88.1357C119.951 88.0585 119.138 87.8051 118.301 86.9705C117.465 86.1331 117.211 85.3181 117.136 84.9166L118.862 83.2361C118.993 83.1092 119.069 82.9363 119.075 82.7541C119.081 82.5718 119.015 82.3945 118.892 82.2597L116.299 79.4078C116.176 79.2725 116.005 79.1905 115.823 79.1791C115.641 79.1677 115.461 79.2278 115.322 79.3467L113.799 80.653C113.678 80.7748 113.605 80.9369 113.596 81.1086C113.585 81.284 113.384 85.4409 116.608 88.6657C119.42 91.4769 122.942 91.6826 123.912 91.6826C124.054 91.6826 124.141 91.6784 124.164 91.677C124.336 91.6674 124.498 91.5946 124.619 91.4727L125.924 89.9488C126.043 89.8102 126.104 89.6307 126.092 89.4484C126.081 89.266 125.999 89.0953 125.864 88.9724L123.011 86.378V86.378Z" fill="#B79236"/>
<circle cx="76.6465" cy="28.5821" r="12.0691" fill="#FFD97B" stroke="#B79236"/>
<path d="M81.9332 28.2521H83.3371C83.3371 24.6511 80.6185 21.9353 77.0126 21.9353V23.3392C79.8639 23.3392 81.9332 25.405 81.9332 28.2521Z" fill="#B79236"/>
<path d="M77.0196 26.1472C78.4958 26.1472 79.1254 26.7769 79.1254 28.253H80.5293C80.5293 25.9893 79.2834 24.7433 77.0196 24.7433V26.1472ZM79.4217 29.9679C79.2868 29.8453 79.1095 29.7799 78.9274 29.7855C78.7452 29.7912 78.5723 29.8674 78.4453 29.9981L76.7655 31.7255C76.3612 31.6483 75.5483 31.3949 74.7116 30.5603C73.8749 29.7229 73.6215 28.9079 73.5464 28.5064L75.2725 26.826C75.4033 26.699 75.4796 26.5261 75.4853 26.3439C75.4909 26.1617 75.4254 25.9844 75.3027 25.8496L72.709 22.9976C72.5862 22.8624 72.4155 22.7804 72.2332 22.7689C72.0509 22.7575 71.8713 22.8177 71.7326 22.9365L70.2094 24.2428C70.088 24.3646 70.0156 24.5267 70.0058 24.6984C69.9953 24.8739 69.7945 29.0308 73.0178 32.2555C75.8298 35.0668 79.3522 35.2724 80.3222 35.2724C80.464 35.2724 80.5511 35.2682 80.5742 35.2668C80.7459 35.2572 80.9079 35.1845 81.0291 35.0626L82.3347 33.5387C82.4537 33.4 82.5139 33.2205 82.5026 33.0382C82.4914 32.8559 82.4095 32.6852 82.2743 32.5623L79.4217 29.9679V29.9679Z" fill="#B79236"/>
<circle cx="12.5691" cy="86.375" r="12.0691" fill="#FFD97B" stroke="#B79236"/>
<path d="M17.8559 86.045H19.2597C19.2597 82.4441 16.5411 79.7283 12.9352 79.7283V81.1322C15.7865 81.1322 17.8559 83.198 17.8559 86.045Z" fill="#B79236"/>
<path d="M12.9423 83.9402C14.4185 83.9402 15.0481 84.5698 15.0481 86.046H16.452C16.452 83.7822 15.206 82.5363 12.9423 82.5363V83.9402ZM15.3443 87.7608C15.2094 87.6383 15.0322 87.5729 14.85 87.5785C14.6678 87.5841 14.495 87.6603 14.3679 87.791L12.6882 89.5185C12.2839 89.4413 11.471 89.1879 10.6343 88.3533C9.79758 87.5159 9.54418 86.7009 9.46907 86.2994L11.1951 84.619C11.326 84.492 11.4023 84.3191 11.408 84.1369C11.4136 83.9546 11.3481 83.7774 11.2253 83.6426L8.63166 80.7906C8.50885 80.6553 8.33816 80.5733 8.15585 80.5619C7.97354 80.5505 7.79396 80.6106 7.65526 80.7295L6.13205 82.0358C6.01069 82.1576 5.93825 82.3197 5.92848 82.4914C5.91795 82.6669 5.7172 86.8238 8.94051 90.0485C11.7525 92.8597 15.2748 93.0654 16.2449 93.0654C16.3867 93.0654 16.4737 93.0612 16.4969 93.0598C16.6685 93.0502 16.8306 92.9774 16.9518 92.8555L18.2574 91.3316C18.3763 91.193 18.4366 91.0135 18.4253 90.8312C18.414 90.6489 18.3321 90.4781 18.197 90.3552L15.3443 87.7608V87.7608Z" fill="#B79236"/>
<circle cx="20.6888" cy="54.3238" r="12.0691" fill="#FFD97B" stroke="#B79236"/>
<path d="M25.9755 53.9938H27.3794C27.3794 50.3928 24.6607 47.677 21.0549 47.677V49.0809C23.9062 49.0809 25.9755 51.1467 25.9755 53.9938Z" fill="#B79236"/>
<path d="M21.0619 51.8889C22.5381 51.8889 23.1677 52.5185 23.1677 53.9947H24.5716C24.5716 51.731 23.3257 50.485 21.0619 50.485V51.8889ZM23.464 55.7096C23.3291 55.587 23.1518 55.5216 22.9696 55.5272C22.7875 55.5329 22.6146 55.6091 22.4876 55.7398L20.8078 57.4672C20.4035 57.39 19.5906 57.1366 18.7539 56.302C17.9172 55.4646 17.6638 54.6496 17.5887 54.2481L19.3148 52.5677C19.4456 52.4407 19.5219 52.2678 19.5276 52.0856C19.5332 51.9034 19.4677 51.7261 19.345 51.5913L16.7513 48.7393C16.6285 48.6041 16.4578 48.5221 16.2755 48.5106C16.0932 48.4992 15.9136 48.5594 15.7749 48.6782L14.2517 49.9845C14.1303 50.1063 14.0579 50.2684 14.0481 50.4401C14.0376 50.6156 13.8368 54.7725 17.0601 57.9972C19.8721 60.8085 23.3945 61.0141 24.3645 61.0141C24.5063 61.0141 24.5934 61.0099 24.6165 61.0085C24.7882 60.9989 24.9502 60.9262 25.0714 60.8043L26.377 59.2804C26.496 59.1417 26.5562 58.9622 26.5449 58.7799C26.5337 58.5976 26.4518 58.4269 26.3166 58.3039L23.464 55.7096V55.7096Z" fill="#B79236"/>
<circle cx="51.0307" cy="86.375" r="12.0691" fill="#FFD97B" stroke="#B79236"/>
<path d="M56.3173 86.045H57.7212C57.7212 82.4441 55.0026 79.7283 51.3967 79.7283V81.1322C54.248 81.1322 56.3173 83.198 56.3173 86.045Z" fill="#B79236"/>
<path d="M51.4038 83.9402C52.88 83.9402 53.5096 84.5698 53.5096 86.046H54.9135C54.9135 83.7822 53.6675 82.5363 51.4038 82.5363V83.9402ZM53.8058 87.7608C53.6709 87.6383 53.4937 87.5729 53.3115 87.5785C53.1293 87.5841 52.9565 87.6603 52.8294 87.791L51.1497 89.5185C50.7453 89.4413 49.9325 89.1879 49.0958 88.3533C48.2591 87.5159 48.0057 86.7009 47.9306 86.2994L49.6566 84.619C49.7875 84.492 49.8638 84.3191 49.8694 84.1369C49.8751 83.9546 49.8096 83.7774 49.6868 83.6426L47.0931 80.7906C46.9703 80.6553 46.7996 80.5733 46.6173 80.5619C46.435 80.5505 46.2554 80.6106 46.1167 80.7295L44.5935 82.0358C44.4722 82.1576 44.3997 82.3197 44.39 82.4914C44.3794 82.6669 44.1787 86.8238 47.402 90.0485C50.214 92.8597 53.7363 93.0654 54.7064 93.0654C54.8482 93.0654 54.9352 93.0612 54.9584 93.0598C55.13 93.0502 55.292 92.9774 55.4133 92.8555L56.7189 91.3316C56.8378 91.193 56.8981 91.0135 56.8868 90.8312C56.8755 90.6489 56.7936 90.4781 56.6585 90.3552L53.8058 87.7608V87.7608Z" fill="#B79236"/>
<circle cx="66.8426" cy="50.0503" r="12.0691" fill="#FFD97B" stroke="#B79236"/>
<path d="M72.1293 49.7203H73.5332C73.5332 46.1194 70.8146 43.4036 67.2087 43.4036V44.8074C70.06 44.8074 72.1293 46.8733 72.1293 49.7203Z" fill="#B79236"/>
<path d="M67.2157 47.6155C68.6919 47.6155 69.3215 48.2451 69.3215 49.7213H70.7254C70.7254 47.4575 69.4795 46.2116 67.2157 46.2116V47.6155ZM69.6178 51.4361C69.4829 51.3135 69.3056 51.2482 69.1235 51.2538C68.9413 51.2594 68.7684 51.3356 68.6414 51.4663L66.9616 53.1938C66.5573 53.1166 65.7444 52.8632 64.9077 52.0286C64.071 51.1912 63.8176 50.3762 63.7425 49.9747L65.4686 48.2942C65.5994 48.1673 65.6758 47.9944 65.6814 47.8122C65.687 47.6299 65.6215 47.4526 65.4988 47.3178L62.9051 44.4659C62.7823 44.3306 62.6116 44.2486 62.4293 44.2372C62.247 44.2258 62.0674 44.2859 61.9287 44.4048L60.4055 45.7111C60.2841 45.8329 60.2117 45.995 60.2019 46.1667C60.1914 46.3421 59.9906 50.499 63.214 53.7238C66.0259 56.535 69.5483 56.7407 70.5184 56.7407C70.6601 56.7407 70.7472 56.7365 70.7703 56.7351C70.942 56.7255 71.104 56.6527 71.2252 56.5308L72.5308 55.0069C72.6498 54.8683 72.71 54.6888 72.6987 54.5065C72.6875 54.3242 72.6056 54.1534 72.4705 54.0305L69.6178 51.4361V51.4361Z" fill="#B79236"/>
<circle cx="91.2016" cy="85.5203" r="12.0691" fill="#FFD97B" stroke="#B79236"/>
<path d="M96.4883 85.1903H97.8922C97.8922 81.5893 95.1736 78.8735 91.5677 78.8735V80.2774C94.419 80.2774 96.4883 82.3432 96.4883 85.1903Z" fill="#B79236"/>
<path d="M91.5747 83.0854C93.0509 83.0854 93.6806 83.7151 93.6806 85.1913H95.0844C95.0844 82.9275 93.8385 81.6816 91.5747 81.6816V83.0854ZM93.9768 86.9061C93.8419 86.7835 93.6646 86.7181 93.4825 86.7238C93.3003 86.7294 93.1274 86.8056 93.0004 86.9363L91.3206 88.6638C90.9163 88.5866 90.1035 88.3332 89.2667 87.4985C88.43 86.6611 88.1766 85.8462 88.1015 85.4447L89.8276 83.7642C89.9584 83.6373 90.0348 83.4644 90.0404 83.2821C90.046 83.0999 89.9805 82.9226 89.8578 82.7878L87.2641 79.9358C87.1413 79.8006 86.9706 79.7186 86.7883 79.7072C86.606 79.6958 86.4264 79.7559 86.2877 79.8748L84.7645 81.1811C84.6431 81.3029 84.5707 81.465 84.5609 81.6366C84.5504 81.8121 84.3496 85.969 87.573 89.1937C90.3849 92.005 93.9073 92.2107 94.8774 92.2107C95.0192 92.2107 95.1062 92.2065 95.1294 92.2051C95.301 92.1955 95.463 92.1227 95.5842 92.0008L96.8898 90.4769C97.0088 90.3383 97.069 90.1587 97.0577 89.9764C97.0465 89.7941 96.9646 89.6234 96.8295 89.5005L93.9768 86.9061V86.9061Z" fill="#B79236"/>
<circle cx="47.6119" cy="29.1102" r="12.0691" fill="#FFD97B" stroke="#B79236"/>
<path d="M52.8986 28.7801H54.3025C54.3025 25.1792 51.5838 22.4634 47.978 22.4634V23.8673C50.8293 23.8673 52.8986 25.9331 52.8986 28.7801Z" fill="#B79236"/>
<path d="M47.985 26.6753C49.4612 26.6753 50.0908 27.3049 50.0908 28.7811H51.4947C51.4947 26.5173 50.2488 25.2714 47.985 25.2714V26.6753ZM50.387 30.496C50.2522 30.3734 50.0749 30.308 49.8927 30.3136C49.7106 30.3192 49.5377 30.3954 49.4106 30.5261L47.7309 32.2536C47.3266 32.1764 46.5137 31.923 45.677 31.0884C44.8403 30.251 44.5869 29.436 44.5118 29.0345L46.2379 27.3541C46.3687 27.2271 46.445 27.0542 46.4507 26.872C46.4563 26.6897 46.3908 26.5125 46.2681 26.3777L43.6744 23.5257C43.5516 23.3905 43.3809 23.3084 43.1986 23.297C43.0163 23.2856 42.8367 23.3457 42.698 23.4646L41.1748 24.7709C41.0534 24.8927 40.981 25.0548 40.9712 25.2265C40.9607 25.402 40.7599 29.5589 43.9832 32.7836C46.7952 35.5949 50.3176 35.8005 51.2876 35.8005C51.4294 35.8005 51.5165 35.7963 51.5396 35.7949C51.7113 35.7853 51.8733 35.7125 51.9945 35.5906L53.3001 34.0667C53.4191 33.9281 53.4793 33.7486 53.468 33.5663C53.4568 33.384 53.3749 33.2132 53.2397 33.0903L50.387 30.496V30.496Z" fill="#B79236"/>
<circle cx="23.3032" cy="87.431" r="12.0691" fill="#FFD97B" stroke="#B79236"/>
<path d="M28.5899 87.1009H29.9937C29.9937 83.5 27.2751 80.7842 23.6693 80.7842V82.1881C26.5205 82.1881 28.5899 84.2539 28.5899 87.1009Z" fill="#B79236"/>
<path d="M23.6763 84.9961C25.1525 84.9961 25.7821 85.6257 25.7821 87.1019H27.186C27.186 84.8381 25.9401 83.5922 23.6763 83.5922V84.9961ZM26.0783 88.8168C25.9435 88.6942 25.7662 88.6288 25.584 88.6344C25.4018 88.64 25.229 88.7162 25.1019 88.8469L23.4222 90.5744C23.0179 90.4972 22.205 90.2438 21.3683 89.4092C20.5316 88.5718 20.2782 87.7568 20.2031 87.3553L21.9292 85.6749C22.06 85.5479 22.1363 85.375 22.142 85.1928C22.1476 85.0105 22.0821 84.8333 21.9593 84.6985L19.3657 81.8465C19.2429 81.7113 19.0722 81.6292 18.8899 81.6178C18.7075 81.6064 18.528 81.6665 18.3893 81.7854L16.8661 83.0917C16.7447 83.2135 16.6723 83.3756 16.6625 83.5473C16.652 83.7228 16.4512 87.8797 19.6745 91.1044C22.4865 93.9157 26.0088 94.1213 26.9789 94.1213C27.1207 94.1213 27.2078 94.1171 27.2309 94.1157C27.4026 94.1061 27.5646 94.0333 27.6858 93.9114L28.9914 92.3875C29.1103 92.2489 29.1706 92.0694 29.1593 91.8871C29.148 91.7048 29.0661 91.534 28.931 91.4111L26.0783 88.8168V88.8168Z" fill="#B79236"/>
<circle cx="31.4228" cy="55.3797" r="12.0691" fill="#FFD97B" stroke="#B79236"/>
<path d="M36.7095 55.0497H38.1134C38.1134 51.4487 35.3948 48.7329 31.7889 48.7329V50.1368C34.6402 50.1368 36.7095 52.2026 36.7095 55.0497Z" fill="#B79236"/>
<path d="M31.7959 52.9448C33.2721 52.9448 33.9017 53.5745 33.9017 55.0506H35.3056C35.3056 52.7869 34.0597 51.5409 31.7959 51.5409V52.9448ZM34.198 56.7655C34.0631 56.6429 33.8858 56.5775 33.7037 56.5831C33.5215 56.5888 33.3486 56.665 33.2216 56.7957L31.5418 58.5231C31.1375 58.4459 30.3246 58.1925 29.4879 57.3579C28.6512 56.5205 28.3978 55.7056 28.3227 55.304L30.0488 53.6236C30.1796 53.4966 30.256 53.3237 30.2616 53.1415C30.2672 52.9593 30.2017 52.782 30.079 52.6472L27.4853 49.7952C27.3625 49.66 27.1918 49.578 27.0095 49.5666C26.8272 49.5552 26.6476 49.6153 26.5089 49.7341L24.9857 51.0405C24.8643 51.1622 24.7919 51.3244 24.7821 51.496C24.7716 51.6715 24.5708 55.8284 27.7942 59.0531C30.6061 61.8644 34.1285 62.0701 35.0986 62.0701C35.2403 62.0701 35.3274 62.0658 35.3505 62.0644C35.5222 62.0548 35.6842 61.9821 35.8054 61.8602L37.111 60.3363C37.23 60.1976 37.2902 60.0181 37.2789 59.8358C37.2677 59.6535 37.1858 59.4828 37.0507 59.3599L34.198 56.7655V56.7655Z" fill="#B79236"/>
<circle cx="61.7648" cy="87.431" r="12.0691" fill="#FFD97B" stroke="#B79236"/>
<path d="M67.0513 87.1009H68.4552C68.4552 83.5 65.7366 80.7842 62.1307 80.7842V82.1881C64.982 82.1881 67.0513 84.2539 67.0513 87.1009Z" fill="#B79236"/>
<path d="M62.1378 84.9961C63.614 84.9961 64.2436 85.6257 64.2436 87.1019H65.6475C65.6475 84.8381 64.4015 83.5922 62.1378 83.5922V84.9961ZM64.5398 88.8168C64.4049 88.6942 64.2277 88.6288 64.0455 88.6344C63.8633 88.64 63.6905 88.7162 63.5634 88.8469L61.8837 90.5744C61.4794 90.4972 60.6665 90.2438 59.8298 89.4092C58.9931 88.5718 58.7397 87.7568 58.6646 87.3553L60.3906 85.6749C60.5215 85.5479 60.5978 85.375 60.6034 85.1928C60.6091 85.0105 60.5436 84.8333 60.4208 84.6985L57.8272 81.8465C57.7043 81.7113 57.5337 81.6292 57.3513 81.6178C57.169 81.6064 56.9895 81.6665 56.8508 81.7854L55.3275 83.0917C55.2062 83.2135 55.1337 83.3756 55.124 83.5473C55.1134 83.7228 54.9127 87.8797 58.136 91.1044C60.948 93.9157 64.4703 94.1213 65.4404 94.1213C65.5822 94.1213 65.6692 94.1171 65.6924 94.1157C65.864 94.1061 66.0261 94.0333 66.1473 93.9114L67.4529 92.3875C67.5718 92.2489 67.6321 92.0694 67.6208 91.8871C67.6095 91.7048 67.5276 91.534 67.3925 91.4111L64.5398 88.8168V88.8168Z" fill="#B79236"/>
<circle cx="77.5767" cy="51.106" r="12.0691" fill="#FFD97B" stroke="#B79236"/>
<path d="M82.8634 50.7762H84.2672C84.2672 47.1753 81.5486 44.4595 77.9427 44.4595V45.8634C80.794 45.8634 82.8634 47.9292 82.8634 50.7762Z" fill="#B79236"/>
<path d="M77.9498 48.6714C79.426 48.6714 80.0556 49.301 80.0556 50.7772H81.4595C81.4595 48.5134 80.2135 47.2675 77.9498 47.2675V48.6714ZM80.3518 52.492C80.217 52.3695 80.0397 52.3041 79.8575 52.3097C79.6753 52.3153 79.5025 52.3915 79.3754 52.5222L77.6957 54.2497C77.2914 54.1725 76.4785 53.9191 75.6418 53.0845C74.8051 52.2471 74.5517 51.4321 74.4766 51.0306L76.2027 49.3502C76.3335 49.2232 76.4098 49.0503 76.4155 48.8681C76.4211 48.6858 76.3556 48.5086 76.2328 48.3738L73.6392 45.5218C73.5164 45.3865 73.3457 45.3045 73.1634 45.2931C72.981 45.2817 72.8015 45.3418 72.6628 45.4607L71.1396 46.767C71.0182 46.8888 70.9458 47.0509 70.936 47.2226C70.9255 47.3981 70.7247 51.555 73.948 54.7797C76.76 57.5909 80.2823 57.7966 81.2524 57.7966C81.3942 57.7966 81.4813 57.7924 81.5044 57.791C81.6761 57.7814 81.8381 57.7086 81.9593 57.5867L83.2649 56.0628C83.3838 55.9242 83.4441 55.7447 83.4328 55.5624C83.4215 55.3801 83.3396 55.2093 83.2045 55.0864L80.3518 52.492V52.492Z" fill="#B79236"/>
<circle cx="101.936" cy="86.5762" r="12.0691" fill="#FFD97B" stroke="#B79236"/>
<path d="M107.222 86.2462H108.626C108.626 82.6453 105.908 79.9294 102.302 79.9294V81.3333C105.153 81.3333 107.222 83.3991 107.222 86.2462Z" fill="#B79236"/>
<path d="M102.309 84.1413C103.785 84.1413 104.415 84.771 104.415 86.2472H105.818C105.818 83.9834 104.572 82.7375 102.309 82.7375V84.1413ZM104.711 87.962C104.576 87.8394 104.399 87.774 104.216 87.7797C104.034 87.7853 103.861 87.8615 103.734 87.9922L102.055 89.7197C101.65 89.6425 100.837 89.3891 100.001 88.5545C99.164 87.717 98.9106 86.9021 98.8355 86.5006L100.562 84.8201C100.692 84.6932 100.769 84.5203 100.774 84.338C100.78 84.1558 100.715 83.9785 100.592 83.8437L97.9981 80.9917C97.8753 80.8565 97.7046 80.7745 97.5223 80.7631C97.34 80.7517 97.1604 80.8118 97.0217 80.9307L95.4985 82.237C95.3771 82.3588 95.3047 82.5209 95.2949 82.6925C95.2844 82.868 95.0837 87.0249 98.307 90.2496C101.119 93.0609 104.641 93.2666 105.611 93.2666C105.753 93.2666 105.84 93.2624 105.863 93.261C106.035 93.2514 106.197 93.1786 106.318 93.0567L107.624 91.5328C107.743 91.3942 107.803 91.2147 107.792 91.0323C107.78 90.85 107.699 90.6793 107.563 90.5564L104.711 87.962V87.962Z" fill="#B79236"/>
<circle cx="58.3459" cy="30.1658" r="12.0691" fill="#FFD97B" stroke="#B79236"/>
<path d="M63.6326 29.8358H65.0365C65.0365 26.2349 62.3178 23.519 58.712 23.519V24.9229C61.5633 24.9229 63.6326 26.9887 63.6326 29.8358Z" fill="#B79236"/>
<path d="M58.719 27.7309C60.1952 27.7309 60.8248 28.3606 60.8248 29.8368H62.2287C62.2287 27.573 60.9828 26.3271 58.719 26.3271V27.7309ZM61.1211 31.5516C60.9862 31.429 60.8089 31.3636 60.6268 31.3693C60.4446 31.3749 60.2717 31.4511 60.1447 31.5818L58.4649 33.3093C58.0606 33.2321 57.2477 32.9787 56.411 32.1441C55.5743 31.3066 55.3209 30.4917 55.2458 30.0902L56.9719 28.4097C57.1027 28.2828 57.1791 28.1099 57.1847 27.9276C57.1903 27.7454 57.1248 27.5681 57.0021 27.4333L54.4084 24.5813C54.2856 24.4461 54.1149 24.3641 53.9326 24.3527C53.7503 24.3413 53.5707 24.4014 53.432 24.5203L51.9088 25.8266C51.7874 25.9484 51.715 26.1105 51.7052 26.2821C51.6947 26.4576 51.4939 30.6145 54.7172 33.8392C57.5292 36.6505 61.0516 36.8562 62.0216 36.8562C62.1634 36.8562 62.2505 36.852 62.2736 36.8506C62.4453 36.841 62.6073 36.7682 62.7285 36.6463L64.0341 35.1224C64.1531 34.9838 64.2133 34.8043 64.202 34.6219C64.1908 34.4396 64.1089 34.2689 63.9737 34.146L61.1211 31.5516V31.5516Z" fill="#B79236"/>
<circle cx="20.7894" cy="69.834" r="12.0691" fill="#FFD97B" stroke="#B79236"/>
<path d="M26.0761 69.504H27.4799C27.4799 65.9031 24.7613 63.1873 21.1555 63.1873V64.5911C24.0067 64.5911 26.0761 66.657 26.0761 69.504Z" fill="#B79236"/>
<path d="M21.1624 67.3992C22.6386 67.3992 23.2683 68.0288 23.2683 69.505H24.6721C24.6721 67.2412 23.4262 65.9953 21.1624 65.9953V67.3992ZM23.5645 71.2198C23.4296 71.0972 23.2524 71.0319 23.0702 71.0375C22.888 71.0431 22.7151 71.1193 22.5881 71.25L20.9083 72.9775C20.504 72.9003 19.6912 72.6469 18.8545 71.8123C18.0177 70.9749 17.7643 70.1599 17.6892 69.7584L19.4153 68.0779C19.5462 67.951 19.6225 67.7781 19.6281 67.5959C19.6337 67.4136 19.5682 67.2363 19.4455 67.1015L16.8518 64.2496C16.729 64.1143 16.5583 64.0323 16.376 64.0209C16.1937 64.0095 16.0141 64.0696 15.8754 64.1885L14.3522 65.4948C14.2308 65.6166 14.1584 65.7787 14.1486 65.9504C14.1381 66.1258 13.9374 70.2827 17.1607 73.5075C19.9726 76.3187 23.495 76.5244 24.4651 76.5244C24.6069 76.5244 24.6939 76.5202 24.7171 76.5188C24.8887 76.5092 25.0507 76.4364 25.1719 76.3145L26.4775 74.7906C26.5965 74.652 26.6567 74.4725 26.6455 74.2902C26.6342 74.1078 26.5523 73.9371 26.4172 73.8142L23.5645 71.2198V71.2198Z" fill="#B79236"/>
<circle cx="28.909" cy="37.7828" r="12.0691" fill="#FFD97B" stroke="#B79236"/>
<path d="M34.1957 37.4528H35.5996C35.5996 33.8518 32.881 31.136 29.2751 31.136V32.5399C32.1264 32.5399 34.1957 34.6057 34.1957 37.4528Z" fill="#B79236"/>
<path d="M29.2821 35.3479C30.7582 35.3479 31.3879 35.9775 31.3879 37.4537H32.7918C32.7918 35.19 31.5458 33.944 29.2821 33.944V35.3479ZM31.6841 39.1686C31.5492 39.046 31.372 38.9806 31.1898 38.9862C31.0076 38.9918 30.8348 39.0681 30.7077 39.1987L29.028 40.9262C28.6236 40.849 27.8108 40.5956 26.9741 39.761C26.1374 38.9236 25.884 38.1086 25.8089 37.7071L27.5349 36.0267C27.6658 35.8997 27.7421 35.7268 27.7477 35.5446C27.7534 35.3623 27.6879 35.1851 27.5651 35.0503L24.9714 32.1983C24.8486 32.0631 24.6779 31.981 24.4956 31.9696C24.3133 31.9582 24.1337 32.0183 23.995 32.1372L22.4718 33.4435C22.3505 33.5653 22.278 33.7274 22.2683 33.8991C22.2577 34.0746 22.057 38.2315 25.2803 41.4562C28.0923 44.2675 31.6146 44.4731 32.5847 44.4731C32.7265 44.4731 32.8135 44.4689 32.8367 44.4675C33.0083 44.4579 33.1703 44.3851 33.2916 44.2632L34.5972 42.7393C34.7161 42.6007 34.7764 42.4212 34.7651 42.2389C34.7538 42.0566 34.6719 41.8858 34.5368 41.7629L31.6841 39.1686V39.1686Z" fill="#B79236"/>
<circle cx="59.2508" cy="69.834" r="12.0691" fill="#FFD97B" stroke="#B79236"/>
<path d="M64.5376 69.504H65.9414C65.9414 65.9031 63.2228 63.1873 59.6169 63.1873V64.5911C62.4682 64.5911 64.5376 66.657 64.5376 69.504Z" fill="#B79236"/>
<path d="M59.6239 67.3992C61.1001 67.3992 61.7297 68.0288 61.7297 69.505H63.1336C63.1336 67.2412 61.8877 65.9953 59.6239 65.9953V67.3992ZM62.026 71.2198C61.8911 71.0972 61.7138 71.0319 61.5317 71.0375C61.3495 71.0431 61.1766 71.1193 61.0496 71.25L59.3698 72.9775C58.9655 72.9003 58.1527 72.6469 57.3159 71.8123C56.4792 70.9749 56.2258 70.1599 56.1507 69.7584L57.8768 68.0779C58.0076 67.951 58.084 67.7781 58.0896 67.5959C58.0952 67.4136 58.0297 67.2363 57.907 67.1015L55.3133 64.2496C55.1905 64.1143 55.0198 64.0323 54.8375 64.0209C54.6552 64.0095 54.4756 64.0696 54.3369 64.1885L52.8137 65.4948C52.6923 65.6166 52.6199 65.7787 52.6101 65.9504C52.5996 66.1258 52.3988 70.2827 55.6222 73.5075C58.4341 76.3187 61.9565 76.5244 62.9266 76.5244C63.0683 76.5244 63.1554 76.5202 63.1786 76.5188C63.3502 76.5092 63.5122 76.4364 63.6334 76.3145L64.939 74.7906C65.058 74.652 65.1182 74.4725 65.1069 74.2902C65.0957 74.1078 65.0138 73.9371 64.8787 73.8142L62.026 71.2198V71.2198Z" fill="#B79236"/>
<circle cx="75.0629" cy="33.5093" r="12.0691" fill="#FFD97B" stroke="#B79236"/>
<path d="M80.3495 33.1793H81.7534C81.7534 29.5784 79.0348 26.8625 75.4289 26.8625V28.2664C78.2802 28.2664 80.3495 30.3322 80.3495 33.1793Z" fill="#B79236"/>
<path d="M75.4359 31.0745C76.9121 31.0745 77.5417 31.7041 77.5417 33.1803H78.9456C78.9456 30.9165 77.6996 29.6706 75.4359 29.6706V31.0745ZM77.8379 34.8951C77.703 34.7725 77.5258 34.7071 77.3436 34.7128C77.1614 34.7184 76.9886 34.7946 76.8615 34.9253L75.1818 36.6528C74.7775 36.5756 73.9646 36.3222 73.1279 35.4876C72.2912 34.6501 72.0378 33.8352 71.9627 33.4337L73.6887 31.7532C73.8196 31.6263 73.8959 31.4534 73.9015 31.2711C73.9072 31.0889 73.8417 30.9116 73.7189 30.7768L71.1252 27.9248C71.0024 27.7896 70.8318 27.7076 70.6494 27.6962C70.4671 27.6848 70.2876 27.7449 70.1488 27.8638L68.6256 29.1701C68.5043 29.2919 68.4318 29.454 68.4221 29.6256C68.4115 29.8011 68.2108 33.958 71.4341 37.1827C74.2461 39.994 77.7684 40.1997 78.7385 40.1997C78.8803 40.1997 78.9673 40.1955 78.9905 40.1941C79.1621 40.1845 79.3242 40.1117 79.4454 39.9898L80.751 38.4659C80.8699 38.3273 80.9302 38.1478 80.9189 37.9654C80.9076 37.7831 80.8257 37.6124 80.6906 37.4895L77.8379 34.8951V34.8951Z" fill="#B79236"/>
<circle cx="99.4218" cy="68.9793" r="12.0691" fill="#FFD97B" stroke="#B79236"/>
<path d="M104.708 68.6495H106.112C106.112 65.0486 103.394 62.3328 99.7878 62.3328V63.7366C102.639 63.7366 104.708 65.8025 104.708 68.6495Z" fill="#B79236"/>
<path d="M99.7948 66.5447C101.271 66.5447 101.901 67.1743 101.901 68.6505H103.305C103.305 66.3867 102.059 65.1408 99.7948 65.1408V66.5447ZM102.197 70.3653C102.062 70.2427 101.885 70.1774 101.703 70.183C101.52 70.1886 101.348 70.2648 101.22 70.3955L99.5407 72.123C99.1364 72.0458 98.3236 71.7924 97.4868 70.9578C96.6501 70.1204 96.3967 69.3054 96.3216 68.9039L98.0477 67.2234C98.1785 67.0965 98.2549 66.9236 98.2605 66.7414C98.2661 66.5591 98.2006 66.3818 98.0779 66.247L95.4842 63.3951C95.3614 63.2598 95.1907 63.1778 95.0084 63.1664C94.8261 63.155 94.6465 63.2151 94.5078 63.334L92.9846 64.6403C92.8632 64.7621 92.7908 64.9242 92.781 65.0959C92.7705 65.2713 92.5697 69.4282 95.7931 72.653C98.605 75.4642 102.127 75.6699 103.097 75.6699C103.239 75.6699 103.326 75.6657 103.349 75.6643C103.521 75.6547 103.683 75.5819 103.804 75.46L105.11 73.9361C105.229 73.7975 105.289 73.618 105.278 73.4357C105.267 73.2534 105.185 73.0826 105.05 72.9597L102.197 70.3653V70.3653Z" fill="#B79236"/>
<circle cx="55.8321" cy="12.5691" r="12.0691" fill="#FFD97B" stroke="#B79236"/>
<path d="M61.1187 12.2391H62.5226C62.5226 8.63817 59.804 5.92236 56.1981 5.92236V7.32625C59.0494 7.32625 61.1187 9.39206 61.1187 12.2391Z" fill="#B79236"/>
<path d="M56.2052 10.1343C57.6813 10.1343 58.311 10.7639 58.311 12.2401H59.7149C59.7149 9.97633 58.4689 8.73039 56.2052 8.73039V10.1343ZM58.6072 13.9549C58.4723 13.8323 58.2951 13.767 58.1129 13.7726C57.9307 13.7782 57.7579 13.8544 57.6308 13.9851L55.9511 15.7126C55.5467 15.6354 54.7339 15.382 53.8972 14.5474C53.0605 13.71 52.8071 12.895 52.732 12.4935L54.458 10.813C54.5889 10.6861 54.6652 10.5132 54.6708 10.331C54.6765 10.1487 54.611 9.97145 54.4882 9.83665L51.8945 6.98466C51.7717 6.84944 51.601 6.76741 51.4187 6.75601C51.2364 6.74461 51.0568 6.80472 50.9181 6.92359L49.3949 8.2299C49.2736 8.3517 49.2011 8.5138 49.1914 8.68546C49.1808 8.86095 48.9801 13.0178 52.2034 16.2426C55.0154 19.0538 58.5377 19.2595 59.5078 19.2595C59.6496 19.2595 59.7366 19.2553 59.7598 19.2539C59.9314 19.2443 60.0934 19.1715 60.2146 19.0496L61.5203 17.5257C61.6392 17.3871 61.6995 17.2076 61.6882 17.0253C61.6769 16.843 61.595 16.6722 61.4599 16.5493L58.6072 13.9549V13.9549Z" fill="#B79236"/>
</svg>
