<svg width="100" height="100" viewBox="0 0 100 100" fill="none" xmlns="http://www.w3.org/2000/svg">
<circle cx="50" cy="50" r="47.5" fill="#FFD97B" stroke="#B79236" stroke-width="5"/>
<path d="M71.0305 48.6882H76.6151C76.6151 34.3635 65.8005 23.5601 51.4563 23.5601V29.1447C62.7987 29.1447 71.0305 37.3625 71.0305 48.6882Z" fill="#B79236"/>
<path d="M51.4843 40.3143C57.3566 40.3143 59.8613 42.819 59.8613 48.6912H65.4459C65.4459 39.686 60.4895 34.7296 51.4843 34.7296V40.3143ZM61.0396 55.5129C60.5031 55.0252 59.798 54.7651 59.0733 54.7875C58.3486 54.8099 57.6609 55.1131 57.1555 55.633L50.4735 62.5049C48.8651 62.1977 45.6316 61.1897 42.3032 57.8696C38.9747 54.5384 37.9667 51.2965 37.6679 49.6993L44.5342 43.0145C45.0547 42.5094 45.3583 41.8216 45.3807 41.0967C45.4032 40.3718 45.1426 39.6666 44.6543 39.1303L34.3367 27.7851C33.8481 27.2472 33.1691 26.9209 32.4439 26.8756C31.7187 26.8302 31.0043 27.0694 30.4525 27.5422L24.3932 32.7387C23.9104 33.2232 23.6223 33.8681 23.5834 34.5509C23.5415 35.249 22.7429 51.7851 35.5653 64.6131C46.7513 75.7963 60.7632 76.6144 64.6222 76.6144C65.1862 76.6144 65.5325 76.5977 65.6246 76.5921C66.3074 76.5539 66.9519 76.2645 67.434 75.7795L72.6278 69.7174C73.101 69.166 73.3406 68.4519 73.2957 67.7266C73.2509 67.0014 72.9251 66.3222 72.3876 65.8333L61.0396 55.5129V55.5129Z" fill="#B79236"/>
</svg>
